<svg width="1920" height="300" viewBox="0 0 1920 300" fill="none" xmlns="http://www.w3.org/2000/svg">
<g clip-path="url(#clip0_91_2116)">
<rect width="1920" height="300" fill="#FFF0E3"/>
<path d="M1545 -150C1586.42 -150 1620 -116.421 1620 -75C1620 -74.4996 1619.99 -74 1619.98 -73.502C1654.22 -66.5591 1680 -36.289 1680 0.000976562C1680 36.2907 1654.22 66.559 1619.98 73.502C1619.99 74.0001 1620 74.4995 1620 75C1620 116.421 1586.42 150 1545 150C1520.46 150 1498.68 138.218 1485 120.005C1471.32 138.218 1449.53 150 1425 150C1383.58 150 1350 116.421 1350 75C1350 74.4995 1350.01 74.0001 1350.02 73.502C1315.77 66.5589 1290 36.2906 1290 0.000976562C1290 -36.2889 1315.77 -66.559 1350.02 -73.502C1350.01 -74 1350 -74.4996 1350 -75C1350 -116.421 1383.58 -150 1425 -150C1449.53 -150 1471.32 -138.219 1485 -120.006C1498.68 -138.219 1520.46 -150 1545 -150Z" fill="#FF9B43" fill-opacity="0.4"/>
<path d="M495 150C536.421 150 570 183.579 570 225C570 225.5 569.993 225.999 569.983 226.497C604.225 233.44 630 263.71 630 300C630 336.29 604.225 366.558 569.983 373.501C569.993 373.999 570 374.499 570 375C570 416.421 536.421 450 495 450C470.465 450 448.683 438.218 435 420.005C421.317 438.218 399.535 450 375 450C333.579 450 300 416.421 300 375C300 374.499 300.006 373.999 300.016 373.501C265.774 366.558 240 336.29 240 300C240 263.71 265.774 233.44 300.016 226.497C300.006 225.999 300 225.5 300 225C300 183.579 333.579 150 375 150C399.534 150 421.317 161.781 435 179.993C448.683 161.78 470.466 150 495 150Z" fill="#FF9B43" fill-opacity="0.4"/>
<path d="M722 35C735.807 35 747 46.1929 747 60C760.807 60 772 71.1929 772 85C772 98.8071 760.807 110 747 110H697C683.193 110 672 98.8071 672 85C672 71.193 683.193 60 697 60C697 46.1929 708.193 35.0001 722 35Z" fill="#FF9B43" fill-opacity="0.2"/>
<path d="M1790 120C1803.81 120 1815 131.193 1815 145C1828.81 145 1840 156.193 1840 170C1840 183.807 1828.81 195 1815 195H1765C1751.19 195 1740 183.807 1740 170C1740 156.193 1751.19 145 1765 145C1765 131.193 1776.19 120 1790 120Z" fill="#FF9B43" fill-opacity="0.2"/>
<path d="M1221 165C1234.81 165 1246 176.191 1246 189.997L1246.65 190.005C1260.15 190.347 1271 201.406 1271 214.997C1271 228.804 1259.81 239.997 1246 239.997V240C1246 253.807 1234.81 265 1221 265C1207.19 265 1196 253.807 1196 240V239.997C1182.19 239.997 1171 228.804 1171 214.997C1171 201.19 1182.19 189.997 1196 189.997C1196 176.191 1207.19 165 1221 165Z" fill="#FF9B43" fill-opacity="0.6"/>
<path d="M883.111 126.28V131.5C882.811 133.96 881.911 136.18 880.411 138.22C880.531 138.34 880.711 138.4 880.891 138.52C883.111 140.02 885.271 141.88 887.431 144.16L880.591 150.64C878.671 148.42 876.691 146.62 874.651 145.24C874.231 145 873.871 144.76 873.451 144.52C871.291 145.96 868.951 147.1 866.431 148.12C863.431 149.32 860.491 150.16 857.611 150.64L853.651 143.14C857.851 142.06 861.571 140.8 864.931 139.36C868.171 137.98 870.511 136.42 871.831 134.68H855.751V126.28H863.071V121.6H874.171V126.28H883.111ZM907.291 130.48V140.86C906.811 140.86 906.211 140.92 905.551 140.92C904.831 140.98 904.111 141.04 903.451 141.16C902.731 141.28 902.071 141.34 901.471 141.46C901.051 141.58 900.751 141.7 900.511 141.82V150.82H890.071V123.4H900.511V131.86C901.171 131.44 901.951 131.14 902.971 130.84C904.051 130.6 905.491 130.48 907.291 130.48ZM900.511 171.7H858.451V152.98H900.511V171.7ZM890.011 163.9V160.78H868.951V163.9H890.011ZM925.152 133C924.552 133 923.952 133.18 923.412 133.48C922.812 133.84 922.332 134.44 921.912 135.4C921.492 136.36 921.192 137.74 920.952 139.48C920.652 141.28 920.532 143.68 920.532 146.56C920.532 149.56 920.652 151.9 920.952 153.64C921.192 155.44 921.492 156.82 921.912 157.78C922.332 158.74 922.812 159.4 923.412 159.64C923.952 160 924.552 160.12 925.152 160.12C925.692 160.12 926.232 160 926.832 159.64C927.372 159.4 927.852 158.74 928.332 157.78C928.692 156.82 929.052 155.44 929.352 153.64C929.592 151.9 929.772 149.56 929.772 146.56C929.772 143.68 929.592 141.28 929.352 139.48C929.052 137.74 928.692 136.36 928.332 135.4C927.852 134.44 927.372 133.84 926.832 133.48C926.232 133.18 925.692 133 925.152 133ZM925.152 123.1C927.432 123.1 929.472 123.52 931.332 124.36C933.132 125.26 934.632 126.64 935.952 128.5C936.672 129.64 937.332 130.9 937.872 132.34H941.472C942.192 132.34 942.972 132.34 943.812 132.28C944.532 132.28 945.252 132.28 945.972 132.16H946.332V123.4H956.832V171.76H946.332V160.06C946.092 160.06 945.792 160.12 945.552 160.12C944.712 160.24 943.872 160.36 942.972 160.36C942.072 160.48 941.172 160.48 940.332 160.48C939.432 160.54 938.652 160.54 938.052 160.54H937.992C937.392 162.16 936.732 163.54 935.952 164.68C934.632 166.6 933.132 167.92 931.332 168.76C929.472 169.6 927.432 170.02 925.152 170.02C922.812 170.02 920.772 169.6 918.972 168.76C917.112 167.92 915.552 166.6 914.292 164.68C912.972 162.82 912.012 160.42 911.352 157.42C910.632 154.48 910.332 150.88 910.332 146.56C910.332 142.36 910.632 138.76 911.352 135.76C912.012 132.82 912.972 130.42 914.292 128.5C915.552 126.64 917.112 125.26 918.972 124.36C920.772 123.52 922.812 123.1 925.152 123.1ZM939.792 141.88C939.912 143.38 939.972 144.94 939.972 146.56C939.972 148.12 939.912 149.56 939.792 150.94H941.472C942.192 150.94 942.972 150.94 943.812 150.88C944.532 150.88 945.252 150.88 945.972 150.76H946.332V141.46C946.092 141.52 945.792 141.52 945.552 141.52C944.712 141.64 943.872 141.76 942.972 141.76C942.072 141.88 941.172 141.88 940.332 141.88H939.792ZM991.759 138.04H962.299V129.1H971.479V121.9H982.579V129.1H991.759V138.04ZM977.119 161.14C978.259 161.14 979.219 160.66 980.059 159.64C980.779 158.68 981.199 157.12 981.199 154.96C981.199 152.92 980.779 151.36 980.059 150.28C979.219 149.32 978.259 148.78 977.119 148.78C975.919 148.78 974.899 149.32 974.179 150.28C973.339 151.36 972.979 152.92 972.979 154.96C972.979 157.12 973.339 158.68 974.119 159.64C974.839 160.66 975.859 161.14 977.119 161.14ZM977.119 170.14C972.559 170.14 969.079 168.76 966.679 166C964.279 163.3 963.079 159.64 963.079 154.96C963.079 150.4 964.279 146.68 966.679 143.92C969.019 141.16 972.499 139.78 977.119 139.78C981.439 139.78 984.859 141.16 987.379 143.92C989.839 146.68 991.099 150.4 991.099 154.96C991.099 159.64 989.899 163.3 987.559 166C985.159 168.76 981.679 170.14 977.119 170.14ZM1015.22 139.42V149.8C1014.26 149.8 1013 149.92 1011.56 150.04C1010.24 150.22 1008.98 150.46 1007.84 150.76V171.7H996.739V123.4H1007.84V140.5C1008.98 140.14 1010.24 139.84 1011.62 139.66C1013.12 139.54 1014.32 139.42 1015.22 139.42ZM1046.28 124.48V129.7C1046.28 133.66 1045.8 137.5 1044.84 141.22C1043.88 145 1042.5 148.6 1040.76 152.02C1038.96 155.44 1036.74 158.62 1034.22 161.56C1031.64 164.56 1028.76 167.14 1025.58 169.42L1017.72 161.92C1023.3 157.72 1027.56 153.16 1030.44 148.24C1033.32 143.44 1034.82 138.7 1035 134.08H1019.52V124.48H1046.28ZM1052.52 171.7V123.4H1063.62V171.7H1052.52Z" fill="#FF9B43"/>
<path d="M130 70C143.807 70 155 81.1929 155 95C168.807 95 180 106.193 180 120C180 133.807 168.807 145 155 145C155 158.807 143.807 170 130 170C116.193 170 105 158.807 105 145C91.1929 145 80 133.807 80 120C80.0001 106.193 91.1929 95 105 95C105 81.1929 116.193 70.0001 130 70Z" fill="#FF9B43" fill-opacity="0.6"/>
</g>
<defs>
<clipPath id="clip0_91_2116">
<rect width="1920" height="300" fill="white"/>
</clipPath>
</defs>
</svg>
