<svg width="1920" height="300" viewBox="0 0 1920 300" fill="none" xmlns="http://www.w3.org/2000/svg">
<g clip-path="url(#clip0_174_5847)">
<rect width="1920" height="300" fill="#FFF5EC"/>
<path d="M1794 42C1835.42 42 1869 75.5786 1869 117C1910.42 117 1944 150.579 1944 192C1944 233.421 1910.42 267 1869 267C1869 308.421 1835.42 342 1794 342C1752.58 342 1719 308.421 1719 267C1677.58 267 1644 233.421 1644 192C1644 150.579 1677.58 117 1719 117C1719 75.5786 1752.58 42 1794 42Z" fill="#FF9B43" fill-opacity="0.25"/>
<path d="M445 181C456.046 181 465 189.954 465 201C465 201.133 464.997 201.267 464.994 201.399C474.126 203.25 481 211.322 481 221C481 230.678 474.126 238.749 464.994 240.6C464.997 240.733 465 240.866 465 241C465 252.046 456.046 261 445 261C438.457 261 432.649 257.858 429 253.001C425.351 257.858 419.543 261 413 261C401.954 261 393 252.046 393 241C393 240.866 393.001 240.733 393.004 240.6C383.873 238.748 377 230.677 377 221C377 211.323 383.873 203.251 393.004 201.399C393.001 201.267 393 201.133 393 201C393 189.954 401.954 181 413 181C419.542 181 425.351 184.141 429 188.998C432.649 184.141 438.458 181 445 181Z" fill="#FF9B43" fill-opacity="0.6"/>
<path d="M1486 42C1497.05 42 1506 50.9543 1506 62C1506 62.1335 1506 62.2666 1505.99 62.3994C1515.13 64.2503 1522 72.3221 1522 82C1522 91.6778 1515.13 99.7487 1505.99 101.6C1506 101.733 1506 101.866 1506 102C1506 113.046 1497.05 122 1486 122C1479.46 122 1473.65 118.858 1470 114.001C1466.35 118.858 1460.54 122 1454 122C1442.95 122 1434 113.046 1434 102C1434 101.866 1434 101.733 1434 101.6C1424.87 99.7483 1418 91.6775 1418 82C1418 72.3225 1424.87 64.2506 1434 62.3994C1434 62.2666 1434 62.1335 1434 62C1434 50.9543 1442.95 42 1454 42C1460.54 42 1466.35 45.1414 1470 49.998C1473.65 45.1414 1479.46 42 1486 42Z" fill="#FF9B43" fill-opacity="0.6"/>
<path d="M868.486 123.76V138.52H891.826C893.626 138.52 895.366 138.46 897.166 138.22C898.846 138.1 900.406 137.8 901.726 137.38V145.84C901.006 146.5 899.686 146.98 897.826 147.28C895.906 147.64 893.806 147.82 891.586 147.82H857.086V123.76H868.486ZM873.406 171.76V161.62H854.686V152.02H904.306V161.62H884.986V171.76H873.406ZM909.745 141.64H926.605V133.18H910.045V123.88H936.805V150.64H919.945V159.82H938.485V169.12H909.745V141.64ZM942.745 171.7V123.4H953.845V171.7H942.745ZM959.873 148C965.873 145.06 970.673 141.58 974.393 137.5C977.993 133.48 979.973 128.92 980.213 123.88H991.433C991.313 127.18 990.713 130.24 989.633 133.24C991.373 134.2 993.113 135.22 994.793 136.24C996.353 137.32 997.913 138.46 999.473 139.66C1000.97 140.86 1002.47 142.18 1003.97 143.56C1005.41 145 1006.97 146.5 1008.65 148.18L1001.57 156.22C998.813 153.1 995.933 150.28 992.873 147.76C990.113 145.66 987.353 143.8 984.533 142.24C984.293 142.54 983.993 142.84 983.753 143.2C981.413 145.96 978.713 148.48 975.713 150.7C972.593 152.98 969.353 154.84 965.933 156.4L959.873 148ZM959.393 170.98V161.38H979.313V151.96H990.173V161.38H1009.01V170.98H959.393ZM1042.95 123.88V132.28H1025.55V141.22H1035.87C1037.55 141.22 1039.23 141.16 1040.91 140.92C1042.59 140.8 1043.97 140.56 1045.17 140.2V148.18C1044.09 148.78 1042.65 149.14 1040.97 149.32C1039.17 149.56 1037.43 149.62 1035.63 149.62H1014.45V123.88H1042.95ZM1065.99 130.48V140.86C1065.51 140.86 1064.91 140.92 1064.25 140.92C1063.53 140.98 1062.81 141.04 1062.15 141.16C1061.43 141.28 1060.77 141.34 1060.17 141.46C1059.75 141.58 1059.45 141.7 1059.21 141.82V149.92H1048.77V123.4H1059.21V131.86C1059.87 131.44 1060.65 131.14 1061.67 130.84C1062.75 130.6 1064.19 130.48 1065.99 130.48ZM1059.21 171.7H1017.15V152.2H1059.21V171.7ZM1048.71 163.6V160.3H1027.65V163.6H1048.71Z" fill="#FF9B43"/>
<path d="M130 -48C171.421 -48 205 -14.4214 205 27C246.421 27 280 60.5786 280 102C280 143.421 246.421 177 205 177C205 218.421 171.421 252 130 252C88.5786 252 55 218.421 55 177C13.5786 177 -20 143.421 -20 102C-20 60.5786 13.5786 27 55 27C55 -14.4214 88.5786 -48 130 -48Z" fill="#FF9B43" fill-opacity="0.25"/>
<path d="M675 27C702.614 27 725 49.3858 725 77C752.614 77 775 99.3858 775 127C775 154.614 752.614 177 725 177H625C597.386 177 575 154.614 575 127C575 99.3858 597.386 77.0001 625 77C625 49.3858 647.386 27.0001 675 27Z" fill="#FF9B43" fill-opacity="0.4"/>
<path d="M1246 172C1273.61 172 1296 194.386 1296 222C1323.61 222 1346 244.386 1346 272C1346 299.614 1323.61 322 1296 322H1196C1168.39 322 1146 299.614 1146 272C1146 244.386 1168.39 222 1196 222C1196 194.386 1218.39 172 1246 172Z" fill="#FF9B43" fill-opacity="0.4"/>
</g>
<defs>
<clipPath id="clip0_174_5847">
<rect width="1920" height="300" fill="white"/>
</clipPath>
</defs>
</svg>
