<svg width="1920" height="400" viewBox="0 0 1920 400" fill="none" xmlns="http://www.w3.org/2000/svg">
<rect width="1920" height="100" fill="white"/>
<path d="M315.267 34C317.391 34 319.126 35.6693 319.232 37.7686L319.238 37.9736L319.442 37.9785C321.541 38.0849 323.209 39.8214 323.209 41.9473C323.209 44.1415 321.431 45.9198 319.238 45.9199L319.232 46.125C319.126 48.2243 317.391 49.8936 315.267 49.8936C313.074 49.8933 311.296 48.1142 311.296 45.9199C309.103 45.9198 307.325 44.1415 307.325 41.9473C307.325 39.7529 309.103 37.9738 311.296 37.9736L311.302 37.7686C311.408 35.6695 313.142 34.0002 315.267 34Z" fill="#FF9B43"/>
<path d="M289.344 34.3176V39.8759H277.819V45.7915H284.655C285.767 45.7915 286.88 45.7518 287.993 45.593C289.106 45.5136 290.02 45.3548 290.815 45.1166V50.397C290.099 50.794 289.145 51.0322 288.033 51.1513C286.84 51.3101 285.688 51.3498 284.496 51.3498H270.467V34.3176H289.344ZM304.605 38.6849V45.5533C304.287 45.5533 303.89 45.593 303.452 45.593C302.976 45.6327 302.499 45.6724 302.061 45.7518C301.585 45.8312 301.147 45.8709 300.75 45.9504C300.472 46.0298 300.273 46.1092 300.114 46.1886V51.5484H293.199V34H300.114V39.598C300.551 39.3201 301.068 39.1216 301.744 38.9231C302.459 38.7643 303.413 38.6849 304.605 38.6849ZM300.114 65.9602H272.255V53.057H300.114V65.9602ZM293.159 60.6004V58.4168H279.21V60.6004H293.159Z" fill="#FF9B43"/>
<path d="M236.469 46.0695H247.636V40.4715H236.667V34.3176H254.392V52.0248H243.225V58.0992H255.505V64.253H236.469V46.0695ZM258.327 65.9602V34H265.679V65.9602H258.327Z" fill="#FF9B43"/>
<path d="M209.141 34.2383V44.005H224.6C225.792 44.005 226.945 43.9653 228.137 43.8065C229.25 43.7271 230.283 43.5286 231.158 43.2507V48.8487C230.681 49.2854 229.806 49.603 228.574 49.8015C227.303 50.0397 225.912 50.1588 224.441 50.1588H201.59V34.2383H209.141ZM212.399 66V59.2903H200V52.938H232.866V59.2903H220.07V66H212.399Z" fill="#FF9B43"/>
<path d="M342.925 40.4715H332.751V46.2283H342.329V52.3821H332.751V58.0992H339.15C340.302 58.0992 341.375 58.0595 342.408 57.9404C343.362 57.861 344.117 57.7419 344.634 57.5434V63.459C344.078 63.7766 343.283 63.9751 342.249 64.0545C341.176 64.2133 339.984 64.253 338.633 64.253H325.995V34.3176H342.925V40.4715ZM349.045 51.6675C348.648 51.7866 348.092 51.866 347.376 51.866C346.621 51.9057 345.826 51.9057 345.031 51.9057H344.475V45.5533H349.045V34H356V65.9999H349.045V51.6675Z" fill="#FF9B43"/>
<path d="M701.416 41.816H705.832V39.488H708.448V41.816H712.864V43.928H708.448V43.952C708.448 46.304 710.152 48.56 713.488 49.472L712.288 51.536C709.864 50.84 708.136 49.424 707.176 47.576C706.216 49.592 704.44 51.152 701.944 51.896L700.72 49.832C704.056 48.872 705.832 46.496 705.832 43.952V43.928H701.416V41.816ZM714.88 39.584H717.52V44.72H720.496V46.904H717.52V52.136H714.88V39.584ZM703.816 53.072H717.52V60.68H703.816V53.072ZM714.952 55.136H706.408V58.592H714.952V55.136ZM727.553 41.096C729.497 41.096 731.081 42.2 732.041 44.096H736.937V39.536H739.553V60.968H736.937V52.904H732.209C731.273 55.016 729.593 56.24 727.553 56.24C724.409 56.24 722.129 53.312 722.129 48.656C722.129 44.024 724.409 41.096 727.553 41.096ZM727.553 43.496C725.825 43.496 724.625 45.392 724.625 48.656C724.625 51.944 725.825 53.864 727.553 53.864C729.329 53.864 730.529 51.944 730.529 48.656C730.529 45.392 729.329 43.496 727.553 43.496ZM732.761 46.232C732.929 46.976 733.001 47.792 733.001 48.656C733.001 49.4 732.953 50.12 732.833 50.768H736.937V46.232H732.761ZM756.761 39.584H759.401V48.08H762.641V50.264H759.401V60.944H756.761V39.584ZM742.649 42.824H747.617V39.896H750.281V42.824H755.177V44.936H742.649V42.824ZM748.961 46.376C752.057 46.376 754.313 48.44 754.313 51.392C754.313 54.344 752.057 56.408 748.961 56.408C745.913 56.408 743.633 54.344 743.633 51.392C743.633 48.44 745.913 46.376 748.961 46.376ZM748.961 48.512C747.329 48.512 746.177 49.64 746.177 51.392C746.177 53.144 747.329 54.248 748.961 54.248C750.593 54.248 751.769 53.144 751.769 51.392C751.769 49.64 750.593 48.512 748.961 48.512ZM778.77 39.56H781.41V60.92H778.77V39.56ZM775.098 41.792C775.098 48.2 772.674 53.576 765.234 57.176L763.866 55.088C769.41 52.424 771.93 48.8 772.386 43.928H764.922V41.792H775.098Z" fill="#555555"/>
<path d="M924.144 41.312H926.808V44.672C926.808 48.608 928.824 52.544 932.256 54.056L930.72 56.192C928.248 55.04 926.472 52.76 925.512 49.976C924.552 52.976 922.728 55.424 920.16 56.648L918.576 54.464C922.08 52.904 924.144 48.8 924.144 44.672V41.312ZM933.768 39.536H936.408V60.968H933.768V39.536ZM940.873 41.312H951.073V51.512H940.873V41.312ZM948.505 43.4H943.465V49.4H948.505V43.4ZM954.793 39.584H957.433V54.824H954.793V39.584ZM943.417 53.408H946.057V58.256H958.033V60.368H943.417V53.408ZM976.489 39.56H978.985V60.92H976.489V39.56ZM969.145 47.024H972.193V39.968H974.641V59.912H972.193V49.16H969.145V47.024ZM961.081 41.84H970.705V44H967.321V45.392C967.321 48.992 968.569 52.64 971.593 54.416L970.033 56.312C968.089 55.136 966.793 53.12 966.049 50.696C965.329 53.336 963.985 55.568 961.969 56.84L960.385 54.896C963.433 52.976 964.753 49.136 964.753 45.392V44H961.081V41.84ZM995.81 39.56H998.45V45.824H1001.43V47.984H998.45V55.184H995.81V39.56ZM984.866 53.576H987.506V58.4H999.314V60.512H984.866V53.576ZM987.698 40.976C990.938 40.976 993.41 43.208 993.41 46.352C993.41 49.472 990.938 51.728 987.698 51.728C984.458 51.728 981.986 49.472 981.986 46.352C981.986 43.208 984.458 40.976 987.698 40.976ZM987.698 43.28C985.922 43.28 984.554 44.48 984.554 46.352C984.554 48.224 985.922 49.424 987.698 49.424C989.474 49.424 990.842 48.224 990.842 46.352C990.842 44.48 989.474 43.28 987.698 43.28Z" fill="#555555"/>
<path d="M1139.26 40.568H1141.88V46.448H1154.05V48.56H1139.26V40.568ZM1136.82 51.296H1156.16V53.432H1147.71V60.944H1145.1V53.432H1136.82V51.296ZM1172.82 39.536H1175.46V60.968H1172.82V39.536ZM1158.92 41.456H1168.93V49.472H1161.63V53.744C1164.97 53.72 1167.85 53.576 1171.14 53.024L1171.4 55.16C1167.78 55.784 1164.61 55.904 1160.82 55.904H1158.97V47.36H1166.26V43.568H1158.92V41.456ZM1178.77 56.144H1187.03V51.224H1189.67V56.144H1198.11V58.304H1178.77V56.144ZM1186.95 40.832H1189.74V42.416C1189.74 45.632 1192.93 48.824 1197.37 49.544L1196.24 51.776C1192.64 51.056 1189.74 48.968 1188.35 46.208C1186.93 48.968 1184 51.056 1180.43 51.776L1179.35 49.544C1183.79 48.824 1186.95 45.584 1186.95 42.416V40.832ZM1213.83 39.56H1216.47V44.528H1219.43V46.664H1216.47V51.584H1213.83V39.56ZM1200.63 40.928H1210.09V43.04H1203.27V48.536C1207.26 48.512 1209.47 48.368 1211.94 47.864L1212.2 49.976C1209.47 50.552 1207.02 50.672 1202.36 50.672H1200.63V40.928ZM1202.77 52.592H1216.47V60.656H1202.77V52.592ZM1213.91 54.656H1205.36V58.568H1213.91V54.656Z" fill="#FF9B43"/>
<rect x="1540" y="28" width="44" height="44" rx="22" fill="#EEEEEE"/>
<path d="M1572 60L1567.17 55.1745M1567.17 55.1745C1568 54.3491 1568.65 53.3692 1569.1 52.2907C1569.55 51.2122 1569.78 50.0563 1569.78 48.889C1569.78 47.7217 1569.55 46.5658 1569.1 45.4873C1568.65 44.4089 1568 43.429 1567.17 42.6035C1566.35 41.7781 1565.37 41.1234 1564.29 40.6766C1563.21 40.2299 1562.06 40 1560.89 40C1559.72 40 1558.57 40.2299 1557.49 40.6766C1556.41 41.1234 1555.43 41.7781 1554.6 42.6035C1552.94 44.2705 1552 46.5315 1552 48.889C1552 51.2465 1552.94 53.5075 1554.6 55.1745C1556.27 56.8415 1558.53 57.778 1560.89 57.778C1563.25 57.778 1565.51 56.8415 1567.17 55.1745Z" stroke="#555555" stroke-width="2" stroke-linecap="round" stroke-linejoin="round"/>
<rect x="1608" y="28" width="44" height="44" rx="22" fill="#EEEEEE"/>
<path d="M1633.75 56.1111V57.3333C1633.75 58.3058 1633.35 59.2384 1632.65 59.9261C1631.95 60.6137 1630.99 61 1630 61C1629.01 61 1628.05 60.6137 1627.35 59.9261C1626.65 59.2384 1626.25 58.3058 1626.25 57.3333V56.1111M1633.75 56.1111H1626.25M1633.75 56.1111H1638.24C1638.72 56.1111 1638.96 56.1111 1639.15 56.0476C1639.33 55.9872 1639.5 55.8866 1639.63 55.7534C1639.77 55.6203 1639.87 55.4583 1639.93 55.28C1640 55.0893 1640 54.8547 1640 54.3829C1640 54.1763 1640 54.0737 1639.98 53.9747C1639.95 53.7896 1639.88 53.614 1639.77 53.4613C1639.71 53.3794 1639.63 53.3061 1639.48 53.1607L1638.99 52.684C1638.92 52.6079 1638.86 52.5176 1638.81 52.4182C1638.77 52.3188 1638.75 52.2122 1638.75 52.1047V47.5556C1638.75 46.432 1638.52 45.3195 1638.08 44.2815C1637.64 43.2435 1637 42.3003 1636.19 41.5059C1635.37 40.7114 1634.41 40.0812 1633.35 39.6513C1632.29 39.2213 1631.15 39 1630 39C1628.85 39 1627.71 39.2213 1626.65 39.6513C1625.59 40.0812 1624.63 40.7114 1623.81 41.5059C1623 42.3003 1622.36 43.2435 1621.92 44.2815C1621.48 45.3195 1621.25 46.432 1621.25 47.5556V52.1047C1621.25 52.2122 1621.23 52.3188 1621.19 52.4182C1621.14 52.5176 1621.08 52.6079 1621 52.684L1620.52 53.1607C1620.37 53.3073 1620.29 53.3794 1620.24 53.4601C1620.12 53.6129 1620.05 53.789 1620.02 53.9747C1620 54.0724 1620 54.1763 1620 54.3829C1620 54.8547 1620 55.0893 1620.07 55.28C1620.13 55.4585 1620.23 55.6207 1620.37 55.7539C1620.5 55.887 1620.67 55.9875 1620.85 56.0476C1621.05 56.1111 1621.28 56.1111 1621.76 56.1111H1626.25" stroke="#555555" stroke-width="2" stroke-linecap="round" stroke-linejoin="round"/>
<rect x="1676" y="28" width="44" height="44" rx="22" fill="#EEEEEE"/>
<path d="M1695.3 41.28H1697.52V48.26H1700.14V50.08H1697.52V59.1H1695.3V41.28ZM1692.84 43.16C1692.84 48.4 1690.7 52.96 1684.84 55.9L1683.6 54.24C1687.9 52.04 1690.2 49 1690.62 44.94H1684.54V43.16H1692.84ZM1709.29 46.216H1710.52V51.186H1712.44V52.208H1710.52V58.55H1709.29V46.216ZM1707.33 47.546C1707.33 51.074 1705.74 54.238 1701.74 56.24L1701.05 55.316C1704.16 53.748 1705.83 51.438 1706.09 48.54H1701.66V47.546H1707.33Z" fill="#555555"/>
<g clip-path="url(#clip0_129_6418)">
<rect width="1920" height="300" transform="translate(0 100)" fill="#FFF5EC"/>
<path d="M1794 142C1835.42 142 1869 175.579 1869 217C1910.42 217 1944 250.579 1944 292C1944 333.421 1910.42 367 1869 367C1869 408.421 1835.42 442 1794 442C1752.58 442 1719 408.421 1719 367C1677.58 367 1644 333.421 1644 292C1644 250.579 1677.58 217 1719 217C1719 175.579 1752.58 142 1794 142Z" fill="#FF9B43" fill-opacity="0.25"/>
<path d="M445 281C456.046 281 465 289.954 465 301C465 301.133 464.997 301.267 464.994 301.399C474.126 303.25 481 311.322 481 321C481 330.678 474.126 338.749 464.994 340.6C464.997 340.733 465 340.866 465 341C465 352.046 456.046 361 445 361C438.457 361 432.649 357.858 429 353.001C425.351 357.858 419.543 361 413 361C401.954 361 393 352.046 393 341C393 340.866 393.001 340.733 393.004 340.6C383.873 338.748 377 330.677 377 321C377 311.323 383.873 303.251 393.004 301.399C393.001 301.267 393 301.133 393 301C393 289.954 401.954 281 413 281C419.542 281 425.351 284.141 429 288.998C432.649 284.141 438.458 281 445 281Z" fill="#FF9B43" fill-opacity="0.6"/>
<path d="M1486 142C1497.05 142 1506 150.954 1506 162C1506 162.133 1506 162.267 1505.99 162.399C1515.13 164.25 1522 172.322 1522 182C1522 191.678 1515.13 199.749 1505.99 201.6C1506 201.733 1506 201.866 1506 202C1506 213.046 1497.05 222 1486 222C1479.46 222 1473.65 218.858 1470 214.001C1466.35 218.858 1460.54 222 1454 222C1442.95 222 1434 213.046 1434 202C1434 201.866 1434 201.733 1434 201.6C1424.87 199.748 1418 191.677 1418 182C1418 172.322 1424.87 164.251 1434 162.399C1434 162.267 1434 162.133 1434 162C1434 150.954 1442.95 142 1454 142C1460.54 142 1466.35 145.141 1470 149.998C1473.65 145.141 1479.46 142 1486 142Z" fill="#FF9B43" fill-opacity="0.6"/>
<path d="M868.486 223.76V238.52H891.826C893.626 238.52 895.366 238.46 897.166 238.22C898.846 238.1 900.406 237.8 901.726 237.38V245.84C901.006 246.5 899.686 246.98 897.826 247.28C895.906 247.64 893.806 247.82 891.586 247.82H857.086V223.76H868.486ZM873.406 271.76V261.62H854.686V252.02H904.306V261.62H884.986V271.76H873.406ZM909.745 241.64H926.605V233.18H910.045V223.88H936.805V250.64H919.945V259.82H938.485V269.12H909.745V241.64ZM942.745 271.7V223.4H953.845V271.7H942.745ZM959.873 248C965.873 245.06 970.673 241.58 974.393 237.5C977.993 233.48 979.973 228.92 980.213 223.88H991.433C991.313 227.18 990.713 230.24 989.633 233.24C991.373 234.2 993.113 235.22 994.793 236.24C996.353 237.32 997.913 238.46 999.473 239.66C1000.97 240.86 1002.47 242.18 1003.97 243.56C1005.41 245 1006.97 246.5 1008.65 248.18L1001.57 256.22C998.813 253.1 995.933 250.28 992.873 247.76C990.113 245.66 987.353 243.8 984.533 242.24C984.293 242.54 983.993 242.84 983.753 243.2C981.413 245.96 978.713 248.48 975.713 250.7C972.593 252.98 969.353 254.84 965.933 256.4L959.873 248ZM959.393 270.98V261.38H979.313V251.96H990.173V261.38H1009.01V270.98H959.393ZM1042.95 223.88V232.28H1025.55V241.22H1035.87C1037.55 241.22 1039.23 241.16 1040.91 240.92C1042.59 240.8 1043.97 240.56 1045.17 240.2V248.18C1044.09 248.78 1042.65 249.14 1040.97 249.32C1039.17 249.56 1037.43 249.62 1035.63 249.62H1014.45V223.88H1042.95ZM1065.99 230.48V240.86C1065.51 240.86 1064.91 240.92 1064.25 240.92C1063.53 240.98 1062.81 241.04 1062.15 241.16C1061.43 241.28 1060.77 241.34 1060.17 241.46C1059.75 241.58 1059.45 241.7 1059.21 241.82V249.92H1048.77V223.4H1059.21V231.86C1059.87 231.44 1060.65 231.14 1061.67 230.84C1062.75 230.6 1064.19 230.48 1065.99 230.48ZM1059.21 271.7H1017.15V252.2H1059.21V271.7ZM1048.71 263.6V260.3H1027.65V263.6H1048.71Z" fill="#FF9B43"/>
<path d="M130 52C171.421 52 205 85.5786 205 127C246.421 127 280 160.579 280 202C280 243.421 246.421 277 205 277C205 318.421 171.421 352 130 352C88.5786 352 55 318.421 55 277C13.5786 277 -20 243.421 -20 202C-20 160.579 13.5786 127 55 127C55 85.5786 88.5786 52 130 52Z" fill="#FF9B43" fill-opacity="0.25"/>
<path d="M675 127C702.614 127 725 149.386 725 177C752.614 177 775 199.386 775 227C775 254.614 752.614 277 725 277H625C597.386 277 575 254.614 575 227C575 199.386 597.386 177 625 177C625 149.386 647.386 127 675 127Z" fill="#FF9B43" fill-opacity="0.4"/>
<path d="M1246 272C1273.61 272 1296 294.386 1296 322C1323.61 322 1346 344.386 1346 372C1346 399.614 1323.61 422 1296 422H1196C1168.39 422 1146 399.614 1146 372C1146 344.386 1168.39 322 1196 322C1196 294.386 1218.39 272 1246 272Z" fill="#FF9B43" fill-opacity="0.4"/>
</g>
<defs>
<clipPath id="clip0_129_6418">
<rect width="1920" height="300" fill="white" transform="translate(0 100)"/>
</clipPath>
</defs>
</svg>
