<svg width="1262" height="543" viewBox="0 0 1262 543" fill="none" xmlns="http://www.w3.org/2000/svg">
<path d="M426.316 199.192H434.644V194.536H428.428V184.216H443.452V194.536H437.26V199.192H445.66V201.328H426.316V199.192ZM440.884 186.304H431.02V192.448H440.884V186.304ZM449.813 183.76H464.069V185.872H452.501V190.288H464.333V192.4H449.813V183.76ZM447.293 194.752H466.637V196.912H458.213V203.92H455.573V196.912H447.293V194.752ZM475.133 184.024C478.469 184.024 480.941 186.184 480.941 189.208C480.941 192.256 478.469 194.392 475.133 194.392C471.773 194.392 469.301 192.256 469.301 189.208C469.301 186.184 471.773 184.024 475.133 184.024ZM475.133 186.304C473.261 186.304 471.869 187.408 471.869 189.208C471.869 190.984 473.261 192.136 475.133 192.136C476.981 192.136 478.373 190.984 478.373 189.208C478.373 187.408 476.981 186.304 475.133 186.304ZM483.269 182.536H485.885V203.968H483.269V182.536ZM468.341 197.344C472.133 197.344 477.461 197.32 481.997 196.624L482.189 198.544C477.509 199.456 472.397 199.504 468.653 199.504L468.341 197.344ZM509.729 182.536H512.393V203.968H509.729V182.536ZM500.969 184.096C504.185 184.096 506.513 187.024 506.513 191.656C506.513 196.312 504.185 199.24 500.969 199.24C497.753 199.24 495.425 196.312 495.425 191.656C495.425 187.024 497.753 184.096 500.969 184.096ZM500.969 186.496C499.193 186.496 497.969 188.392 497.969 191.656C497.969 194.944 499.193 196.864 500.969 196.864C502.745 196.864 503.969 194.944 503.969 191.656C503.969 188.392 502.745 186.496 500.969 186.496ZM521.466 184.096C524.658 184.096 526.962 187.024 526.962 191.656C526.962 196.312 524.658 199.24 521.466 199.24C518.25 199.24 515.946 196.312 515.946 191.656C515.946 187.024 518.25 184.096 521.466 184.096ZM521.466 186.496C519.69 186.496 518.465 188.392 518.465 191.656C518.465 194.944 519.69 196.864 521.466 196.864C523.242 196.864 524.442 194.944 524.442 191.656C524.442 188.392 523.242 186.496 521.466 186.496ZM529.698 182.584H532.386V187.696H535.482V189.88H532.386V194.008H535.482V196.168H532.386V203.944H529.698V182.584ZM551.754 182.56H554.394V203.92H551.754V182.56ZM548.082 184.792C548.082 191.2 545.658 196.576 538.218 200.176L536.85 198.088C542.394 195.424 544.914 191.8 545.37 186.928H537.906V184.792H548.082ZM557.707 192.304H577.051V194.224H557.707V192.304ZM559.915 195.544H574.699V200.416H562.579V201.904H575.323V203.728H559.963V198.712H572.107V197.368H559.915V195.544ZM560.107 183.04H574.627V187.864H562.723V189.232H575.035V191.08H560.155V186.16H572.035V184.864H560.107V183.04ZM598.302 182.56H600.942V187.528H603.894V189.664H600.942V194.584H598.302V182.56ZM585.102 183.928H594.558V186.04H587.742V191.536C591.726 191.512 593.934 191.368 596.406 190.864L596.67 192.976C593.934 193.552 591.486 193.672 586.83 193.672H585.102V183.928ZM587.238 195.592H600.942V203.656H587.238V195.592ZM598.374 197.656H589.83V201.568H598.374V197.656ZM605.191 193.6H624.487V195.712H605.191V193.6ZM607.591 197.32H610.207V201.4H622.327V203.536H607.591V197.32ZM614.839 183.232C619.447 183.232 622.495 184.888 622.495 187.576C622.495 190.288 619.447 191.944 614.839 191.944C610.207 191.944 607.183 190.288 607.183 187.576C607.183 184.888 610.207 183.232 614.839 183.232ZM614.839 185.368C611.767 185.368 609.895 186.136 609.895 187.576C609.895 189.04 611.767 189.832 614.839 189.832C617.911 189.832 619.759 189.04 619.759 187.576C619.759 186.136 617.911 185.368 614.839 185.368ZM637.027 184.312H639.691V187.672C639.691 191.608 641.707 195.544 645.139 197.056L643.603 199.192C641.131 198.04 639.355 195.76 638.395 192.976C637.435 195.976 635.611 198.424 633.043 199.648L631.459 197.464C634.963 195.904 637.027 191.8 637.027 187.672V184.312ZM646.651 182.536H649.291V203.968H646.651V182.536ZM653.755 184.312H663.955V194.512H653.755V184.312ZM661.387 186.4H656.347V192.4H661.387V186.4ZM667.675 182.584H670.315V197.824H667.675V182.584ZM656.299 196.408H658.939V201.256H670.915V203.368H656.299V196.408ZM679.183 199.144H687.439V194.224H690.079V199.144H698.527V201.304H679.183V199.144ZM687.367 183.832H690.151V185.416C690.151 188.632 693.343 191.824 697.783 192.544L696.655 194.776C693.055 194.056 690.151 191.968 688.759 189.208C687.343 191.968 684.415 194.056 680.839 194.776L679.759 192.544C684.199 191.824 687.367 188.584 687.367 185.416V183.832ZM700.136 193.696H708.464V192.088H702.608V183.16H717.176V185.176H705.224V186.592H716.672V188.56H705.224V190.072H717.32V192.088H711.104V193.696H719.432V195.784H700.136V193.696ZM709.784 197.008C714.44 197.008 717.152 198.184 717.152 200.464C717.152 202.72 714.44 203.92 709.784 203.92C705.08 203.92 702.392 202.72 702.392 200.464C702.392 198.184 705.08 197.008 709.784 197.008ZM709.784 198.928C706.64 198.928 705.056 199.432 705.056 200.464C705.056 201.496 706.64 201.976 709.784 201.976C712.904 201.976 714.512 201.496 714.512 200.464C714.512 199.432 712.904 198.928 709.784 198.928ZM726.644 193.696H734.972V192.088H729.116V183.16H743.684V185.176H731.732V186.592H743.18V188.56H731.732V190.072H743.828V192.088H737.612V193.696H745.94V195.784H726.644V193.696ZM736.292 197.008C740.948 197.008 743.66 198.184 743.66 200.464C743.66 202.72 740.948 203.92 736.292 203.92C731.588 203.92 728.9 202.72 728.9 200.464C728.9 198.184 731.588 197.008 736.292 197.008ZM736.292 198.928C733.148 198.928 731.564 199.432 731.564 200.464C731.564 201.496 733.148 201.976 736.292 201.976C739.412 201.976 741.02 201.496 741.02 200.464C741.02 199.432 739.412 198.928 736.292 198.928ZM761.708 182.584H764.348V187.816H767.324V190H764.348V195.04H761.708V182.584ZM750.644 195.904H753.26V197.776H761.756V195.904H764.348V203.68H750.644V195.904ZM753.26 199.768V201.592H761.756V199.768H753.26ZM747.668 184.552H752.636V182.392H755.276V184.552H760.244V186.64H747.668V184.552ZM753.956 187.36C757.052 187.36 759.164 188.872 759.164 191.128C759.164 193.408 757.052 194.92 753.956 194.92C750.884 194.92 748.772 193.408 748.772 191.128C748.772 188.872 750.884 187.36 753.956 187.36ZM753.956 189.304C752.372 189.304 751.292 190 751.292 191.128C751.292 192.28 752.372 192.976 753.956 192.976C755.54 192.976 756.62 192.28 756.62 191.128C756.62 190 755.54 189.304 753.956 189.304ZM784.856 189.472H789.296V182.536H791.912V203.968H789.296V191.608H784.856V189.472ZM779.312 184.288H781.952V187.672C781.952 191.632 783.8 195.544 787.184 197.08L785.624 199.192C783.248 198.016 781.568 195.76 780.632 193C779.696 195.928 777.968 198.328 775.568 199.552L773.936 197.44C777.368 195.808 779.312 191.68 779.312 187.672V184.288ZM810.105 182.536H812.745V203.968H810.105V182.536ZM796.233 184.312H798.849V189.664H803.961V184.312H806.553V198.904H796.233V184.312ZM798.849 191.728V196.792H803.961V191.728H798.849ZM824.289 183.88H827.073V185.464C827.073 188.776 830.241 192.088 834.681 192.856L833.529 195.04C829.953 194.32 827.049 192.16 825.681 189.304C824.289 192.136 821.385 194.32 817.833 195.04L816.705 192.856C821.073 192.064 824.289 188.752 824.289 185.464V183.88ZM816.105 199.048H835.449V201.208H816.105V199.048Z" fill="#555555"/>
<path d="M817.335 249C828.129 249 836.912 257.619 837.184 268.354L837.19 268.867L837.702 268.874C848.431 269.146 857.045 277.933 857.045 288.734C857.045 299.707 848.156 308.601 837.19 308.602L837.184 309.114C836.912 319.85 828.129 328.469 817.335 328.469C806.541 328.469 797.759 319.85 797.487 309.114L797.48 308.602L796.968 308.595C786.239 308.323 777.626 299.535 777.626 288.734C777.626 277.762 786.515 268.867 797.48 268.867L797.487 268.354C797.759 257.619 806.541 249 817.335 249Z" fill="#FF9B43"/>
<path d="M687.721 250.588V278.38H630.095V307.958H664.273C669.837 307.958 675.401 307.759 680.965 306.965C686.528 306.568 691.099 305.774 695.073 304.583V330.985C691.496 332.97 686.727 334.161 681.163 334.757C675.202 335.551 669.439 335.749 663.478 335.749H593.334V250.588H687.721ZM764.025 272.424V306.767C762.435 306.767 760.448 306.965 758.262 306.965C755.878 307.164 753.493 307.362 751.307 307.759C748.923 308.156 746.737 308.355 744.75 308.752C743.359 309.149 742.366 309.546 741.571 309.943V336.742H706.995V249H741.571V276.99C743.756 275.6 746.34 274.608 749.718 273.615C753.294 272.821 758.063 272.424 764.025 272.424ZM741.571 408.801H602.276V344.285H741.571V408.801ZM706.797 382.002V371.084H637.05V382.002H706.797Z" fill="#FF9B43"/>
<path d="M423.345 309.347H479.182V281.357H424.338V250.588H512.962V339.124H457.125V369.496H518.526V400.265H423.345V309.347ZM532.635 408.801V249H569.396V408.801H532.635Z" fill="#FF9B43"/>
<path d="M286.703 250.191V299.025H364.001C369.962 299.025 375.725 298.827 381.686 298.033C387.25 297.635 392.416 296.643 396.788 295.253V323.243C394.403 325.427 390.032 327.015 383.872 328.008C377.513 329.199 370.558 329.794 363.206 329.794H248.948V250.191H286.703ZM302.997 409V375.452H241V343.69H405.332V375.452H341.348V409H302.997Z" fill="#FF9B43"/>
<path d="M955.625 281.357H904.756V310.141H952.644V340.911H904.756V369.496H936.748C942.51 369.496 947.875 369.298 953.042 368.702C957.811 368.305 961.586 367.709 964.169 366.717V396.295C961.388 397.883 957.413 398.876 952.247 399.273C946.882 400.067 940.921 400.265 934.164 400.265H870.975V250.588H955.625V281.357ZM986.226 337.337C984.239 337.933 981.457 338.33 977.88 338.33C974.105 338.528 970.131 338.528 966.157 338.528H963.375V306.767H986.226V249H1021V409H986.226V337.337Z" fill="#FF9B43"/>
<path d="M100.001 43C127.399 43.0003 149.65 65.0371 149.996 92.3535L150.001 93L150.646 93.0039C177.963 93.3498 200.001 115.601 200.001 143C200.001 170.614 177.615 193 150.001 193L149.996 193.646C149.65 220.963 127.399 243 100.001 243C72.6026 243 50.3511 220.963 50.0049 193.646L50.001 193L49.3545 192.996C22.038 192.65 8.59219e-05 170.399 0 143C0 115.386 22.3867 93 50.001 93L50.0049 92.3535C50.3509 65.037 72.6025 43 100.001 43Z" fill="#FF9B43" fill-opacity="0.6"/>
<path d="M229 0C240.689 0 250.199 9.32744 250.493 20.9453L250.5 21.5L251.055 21.5068C262.673 21.8009 272 31.3112 272 43C272 54.8742 262.374 64.5 250.5 64.5L250.493 65.0547C250.199 76.6725 240.689 86 229 86C217.311 85.9999 207.801 76.6724 207.507 65.0547L207.5 64.5C195.626 64.4999 186 54.8741 186 43C186 31.1259 195.626 21.5001 207.5 21.5L207.507 20.9453C207.801 9.3275 217.311 0.000111627 229 0Z" fill="#FF9B43" fill-opacity="0.6"/>
<path d="M1154 303C1187.14 303 1214 329.862 1214 362.999C1214 363.399 1213.99 363.799 1213.99 364.197C1241.38 369.751 1262 393.967 1262 422.999C1262 452.031 1241.38 476.246 1213.99 481.801C1213.99 482.199 1214 482.599 1214 482.999C1214 516.136 1187.14 542.999 1154 542.999C1134.37 542.999 1116.95 533.574 1106 519.003C1095.05 533.574 1077.63 542.999 1058 542.999C1024.86 542.999 998 516.136 998 482.999C998 482.599 998.005 482.199 998.013 481.801C970.62 476.246 950 452.031 950 422.999C950 393.967 970.62 369.752 998.013 364.197C998.005 363.799 998 363.399 998 362.999C998 329.862 1024.86 303 1058 303C1077.63 303 1095.05 312.424 1106 326.994C1116.95 312.424 1134.37 303 1154 303Z" fill="#FF9B43" fill-opacity="0.4"/>
</svg>
