<svg width="130" height="100" viewBox="0 0 130 100" fill="none" xmlns="http://www.w3.org/2000/svg">
<path d="M85 0C98.8071 0 110 11.1929 110 25C110 25.1667 109.996 25.3331 109.993 25.499C121.408 27.8128 130 37.9028 130 50C130 62.0971 121.408 72.1862 109.993 74.5C109.996 74.6663 110 74.8329 110 75C110 88.8071 98.8071 100 85 100C76.8216 100 69.5611 96.0724 65 90.001C60.4389 96.0724 53.1784 100 45 100C31.1929 100 20 88.8071 20 75C20 74.8329 20.0026 74.6663 20.0059 74.5C8.59185 72.1858 0 62.0968 0 50C0 37.9031 8.59175 27.8131 20.0059 25.499C20.0026 25.3331 20 25.1667 20 25C20 11.1929 31.1929 0 45 0C53.1781 0 60.4389 3.92702 65 9.99805C69.5611 3.92702 76.8219 0 85 0Z" fill="#FF9B43"/>
<rect width="24" height="20" transform="translate(50 34)" fill="#FF9B43"/>
<rect x="50" y="34" width="6" height="14" rx="3" fill="#593617"/>
<circle cx="52" cy="37" r="1" fill="white"/>
<rect x="68" y="34" width="6" height="14" rx="3" fill="#593617"/>
<circle cx="70" cy="37" r="1" fill="white"/>
<path d="M65 50L62 54L59 50" stroke="#593617" stroke-linecap="round" stroke-linejoin="round"/>
</svg>
