<svg width="100" height="100" viewBox="0 0 100 100" fill="none" xmlns="http://www.w3.org/2000/svg">
<path d="M50 0C63.8071 0 75 11.1929 75 25C88.8071 25 100 36.1929 100 50C100 63.8071 88.8071 75 75 75C75 88.8071 63.8071 100 50 100C36.1929 100 25 88.8071 25 75C11.1929 75 0 63.8071 0 50C0 36.1929 11.1929 25 25 25C25 11.1929 36.1929 0 50 0Z" fill="#FFBC38"/>
<rect width="24" height="20" transform="translate(34 34)" fill="#FFBC38"/>
<rect x="34" y="34" width="6" height="14" rx="3" fill="#593617"/>
<circle cx="36" cy="37" r="1" fill="white"/>
<rect x="52" y="34" width="6" height="14" rx="3" fill="#593617"/>
<circle cx="54" cy="37" r="1" fill="white"/>
<path d="M49 50L46 54L43 50" stroke="#593617" stroke-linecap="round" stroke-linejoin="round"/>
</svg>
